<mxfile host="app.diagrams.net" modified="2021-10-07T09:03:36.397Z" agent="5.0 (Macintosh; Intel Mac OS X 10_15_5) AppleWebKit/537.36 (KHTML, like Gecko) Chrome/94.0.4606.61 Safari/537.36" etag="bPO8kkfIWj-_hqaILqZm" version="15.3.7" type="github">
  <diagram id="C5RBs43oDa-KdzZeNtuy" name="Page-1">
    <mxGraphModel dx="1426" dy="680" grid="1" gridSize="10" guides="1" tooltips="1" connect="1" arrows="1" fold="1" page="1" pageScale="1" pageWidth="827" pageHeight="1169" math="0" shadow="0">
      <root>
        <mxCell id="WIyWlLk6GJQsqaUBKTNV-0" />
        <mxCell id="WIyWlLk6GJQsqaUBKTNV-1" parent="WIyWlLk6GJQsqaUBKTNV-0" />
        <mxCell id="WbTHGDdrdQ71EQfE0Vz5-21" value="" style="ellipse;whiteSpace=wrap;html=1;" vertex="1" parent="WIyWlLk6GJQsqaUBKTNV-1">
          <mxGeometry x="197.5" y="4775" width="645" height="180" as="geometry" />
        </mxCell>
        <mxCell id="3uMi3oDGjcPtFHxSLLiU-35" value="" style="ellipse;whiteSpace=wrap;html=1;dashed=1;fillColor=#f5f5f5;strokeColor=#666666;fontColor=#333333;" parent="WIyWlLk6GJQsqaUBKTNV-1" vertex="1">
          <mxGeometry x="740" y="3830" width="240" height="320" as="geometry" />
        </mxCell>
        <mxCell id="3uMi3oDGjcPtFHxSLLiU-33" value="" style="ellipse;whiteSpace=wrap;html=1;dashed=1;fillColor=#ffe6cc;strokeColor=#d79b00;" parent="WIyWlLk6GJQsqaUBKTNV-1" vertex="1">
          <mxGeometry x="380" y="3880" width="270" height="270" as="geometry" />
        </mxCell>
        <mxCell id="3uMi3oDGjcPtFHxSLLiU-31" value="" style="ellipse;whiteSpace=wrap;html=1;dashed=1;fillColor=#f8cecc;strokeColor=#b85450;" parent="WIyWlLk6GJQsqaUBKTNV-1" vertex="1">
          <mxGeometry x="310" y="4200" width="360" height="260" as="geometry" />
        </mxCell>
        <mxCell id="3uMi3oDGjcPtFHxSLLiU-27" value="" style="ellipse;whiteSpace=wrap;html=1;dashed=1;fillColor=#d5e8d4;strokeColor=#82b366;" parent="WIyWlLk6GJQsqaUBKTNV-1" vertex="1">
          <mxGeometry y="3880" width="360" height="260" as="geometry" />
        </mxCell>
        <mxCell id="3uMi3oDGjcPtFHxSLLiU-26" value="" style="ellipse;whiteSpace=wrap;html=1;dashed=1;fillColor=#e1d5e7;strokeColor=#9673a6;" parent="WIyWlLk6GJQsqaUBKTNV-1" vertex="1">
          <mxGeometry x="320" y="3610" width="310" height="240" as="geometry" />
        </mxCell>
        <mxCell id="WIyWlLk6GJQsqaUBKTNV-2" value="" style="rounded=0;html=1;jettySize=auto;orthogonalLoop=1;fontSize=11;endArrow=block;endFill=0;endSize=8;strokeWidth=1;shadow=0;labelBackgroundColor=none;edgeStyle=orthogonalEdgeStyle;" parent="WIyWlLk6GJQsqaUBKTNV-1" source="WIyWlLk6GJQsqaUBKTNV-3" target="WIyWlLk6GJQsqaUBKTNV-6" edge="1">
          <mxGeometry relative="1" as="geometry" />
        </mxCell>
        <mxCell id="WIyWlLk6GJQsqaUBKTNV-3" value="Lamp doesn&#39;t work" style="rounded=1;whiteSpace=wrap;html=1;fontSize=12;glass=0;strokeWidth=1;shadow=0;" parent="WIyWlLk6GJQsqaUBKTNV-1" vertex="1">
          <mxGeometry x="160" y="80" width="120" height="40" as="geometry" />
        </mxCell>
        <mxCell id="WIyWlLk6GJQsqaUBKTNV-4" value="Yes" style="rounded=0;html=1;jettySize=auto;orthogonalLoop=1;fontSize=11;endArrow=block;endFill=0;endSize=8;strokeWidth=1;shadow=0;labelBackgroundColor=none;edgeStyle=orthogonalEdgeStyle;" parent="WIyWlLk6GJQsqaUBKTNV-1" source="WIyWlLk6GJQsqaUBKTNV-6" target="WIyWlLk6GJQsqaUBKTNV-10" edge="1">
          <mxGeometry y="20" relative="1" as="geometry">
            <mxPoint as="offset" />
          </mxGeometry>
        </mxCell>
        <mxCell id="WIyWlLk6GJQsqaUBKTNV-5" value="No" style="edgeStyle=orthogonalEdgeStyle;rounded=0;html=1;jettySize=auto;orthogonalLoop=1;fontSize=11;endArrow=block;endFill=0;endSize=8;strokeWidth=1;shadow=0;labelBackgroundColor=none;" parent="WIyWlLk6GJQsqaUBKTNV-1" source="WIyWlLk6GJQsqaUBKTNV-6" target="WIyWlLk6GJQsqaUBKTNV-7" edge="1">
          <mxGeometry y="10" relative="1" as="geometry">
            <mxPoint as="offset" />
          </mxGeometry>
        </mxCell>
        <mxCell id="WIyWlLk6GJQsqaUBKTNV-6" value="Lamp&lt;br&gt;plugged in?" style="rhombus;whiteSpace=wrap;html=1;shadow=0;fontFamily=Helvetica;fontSize=12;align=center;strokeWidth=1;spacing=6;spacingTop=-4;" parent="WIyWlLk6GJQsqaUBKTNV-1" vertex="1">
          <mxGeometry x="170" y="170" width="100" height="80" as="geometry" />
        </mxCell>
        <mxCell id="WIyWlLk6GJQsqaUBKTNV-7" value="Plug in lamp" style="rounded=1;whiteSpace=wrap;html=1;fontSize=12;glass=0;strokeWidth=1;shadow=0;" parent="WIyWlLk6GJQsqaUBKTNV-1" vertex="1">
          <mxGeometry x="320" y="190" width="120" height="40" as="geometry" />
        </mxCell>
        <mxCell id="WIyWlLk6GJQsqaUBKTNV-8" value="No" style="rounded=0;html=1;jettySize=auto;orthogonalLoop=1;fontSize=11;endArrow=block;endFill=0;endSize=8;strokeWidth=1;shadow=0;labelBackgroundColor=none;edgeStyle=orthogonalEdgeStyle;" parent="WIyWlLk6GJQsqaUBKTNV-1" source="WIyWlLk6GJQsqaUBKTNV-10" target="WIyWlLk6GJQsqaUBKTNV-11" edge="1">
          <mxGeometry x="0.3333" y="20" relative="1" as="geometry">
            <mxPoint as="offset" />
          </mxGeometry>
        </mxCell>
        <mxCell id="WIyWlLk6GJQsqaUBKTNV-9" value="Yes" style="edgeStyle=orthogonalEdgeStyle;rounded=0;html=1;jettySize=auto;orthogonalLoop=1;fontSize=11;endArrow=block;endFill=0;endSize=8;strokeWidth=1;shadow=0;labelBackgroundColor=none;" parent="WIyWlLk6GJQsqaUBKTNV-1" source="WIyWlLk6GJQsqaUBKTNV-10" target="WIyWlLk6GJQsqaUBKTNV-12" edge="1">
          <mxGeometry y="10" relative="1" as="geometry">
            <mxPoint as="offset" />
          </mxGeometry>
        </mxCell>
        <mxCell id="WIyWlLk6GJQsqaUBKTNV-10" value="Bulb&lt;br&gt;burned out?" style="rhombus;whiteSpace=wrap;html=1;shadow=0;fontFamily=Helvetica;fontSize=12;align=center;strokeWidth=1;spacing=6;spacingTop=-4;" parent="WIyWlLk6GJQsqaUBKTNV-1" vertex="1">
          <mxGeometry x="170" y="290" width="100" height="80" as="geometry" />
        </mxCell>
        <mxCell id="WIyWlLk6GJQsqaUBKTNV-11" value="Repair Lamp" style="rounded=1;whiteSpace=wrap;html=1;fontSize=12;glass=0;strokeWidth=1;shadow=0;" parent="WIyWlLk6GJQsqaUBKTNV-1" vertex="1">
          <mxGeometry x="160" y="430" width="120" height="40" as="geometry" />
        </mxCell>
        <mxCell id="WIyWlLk6GJQsqaUBKTNV-12" value="Replace Bulb" style="rounded=1;whiteSpace=wrap;html=1;fontSize=12;glass=0;strokeWidth=1;shadow=0;" parent="WIyWlLk6GJQsqaUBKTNV-1" vertex="1">
          <mxGeometry x="320" y="310" width="120" height="40" as="geometry" />
        </mxCell>
        <mxCell id="8JjCBqSIyLLTaly739qu-1" value="kylin" style="ellipse;whiteSpace=wrap;html=1;" parent="WIyWlLk6GJQsqaUBKTNV-1" vertex="1">
          <mxGeometry x="320" y="600" width="120" height="80" as="geometry" />
        </mxCell>
        <mxCell id="8JjCBqSIyLLTaly739qu-3" value="本地cube 权限控制" style="rounded=0;whiteSpace=wrap;html=1;" parent="WIyWlLk6GJQsqaUBKTNV-1" vertex="1">
          <mxGeometry x="60" y="740" width="120" height="60" as="geometry" />
        </mxCell>
        <mxCell id="8JjCBqSIyLLTaly739qu-6" value="可视化报表" style="rounded=0;whiteSpace=wrap;html=1;" parent="WIyWlLk6GJQsqaUBKTNV-1" vertex="1">
          <mxGeometry x="570" y="740" width="120" height="60" as="geometry" />
        </mxCell>
        <mxCell id="8JjCBqSIyLLTaly739qu-8" value="通过api 构建cube" style="endArrow=classic;html=1;entryX=0.025;entryY=0.738;entryDx=0;entryDy=0;entryPerimeter=0;exitX=1;exitY=0.25;exitDx=0;exitDy=0;" parent="WIyWlLk6GJQsqaUBKTNV-1" source="8JjCBqSIyLLTaly739qu-3" target="8JjCBqSIyLLTaly739qu-1" edge="1">
          <mxGeometry width="50" height="50" relative="1" as="geometry">
            <mxPoint x="190" y="750" as="sourcePoint" />
            <mxPoint x="240" y="700" as="targetPoint" />
          </mxGeometry>
        </mxCell>
        <mxCell id="8JjCBqSIyLLTaly739qu-11" value="" style="endArrow=classic;html=1;entryX=0.917;entryY=0.875;entryDx=0;entryDy=0;entryPerimeter=0;" parent="WIyWlLk6GJQsqaUBKTNV-1" source="8JjCBqSIyLLTaly739qu-6" target="8JjCBqSIyLLTaly739qu-1" edge="1">
          <mxGeometry width="50" height="50" relative="1" as="geometry">
            <mxPoint x="390" y="860" as="sourcePoint" />
            <mxPoint x="440" y="810" as="targetPoint" />
          </mxGeometry>
        </mxCell>
        <mxCell id="8JjCBqSIyLLTaly739qu-12" value="通过api 调用" style="edgeLabel;html=1;align=center;verticalAlign=middle;resizable=0;points=[];" parent="8JjCBqSIyLLTaly739qu-11" vertex="1" connectable="0">
          <mxGeometry x="0.4004" y="-2" relative="1" as="geometry">
            <mxPoint as="offset" />
          </mxGeometry>
        </mxCell>
        <mxCell id="8JjCBqSIyLLTaly739qu-15" value="" style="verticalLabelPosition=bottom;verticalAlign=top;html=1;shape=mxgraph.basic.rect;fillColor2=none;strokeWidth=1;size=20;indent=5;" parent="WIyWlLk6GJQsqaUBKTNV-1" vertex="1">
          <mxGeometry x="30" y="890" width="610" height="130" as="geometry" />
        </mxCell>
        <mxCell id="8JjCBqSIyLLTaly739qu-17" value="使用方" style="text;html=1;strokeColor=none;fillColor=none;align=center;verticalAlign=middle;whiteSpace=wrap;rounded=0;" parent="WIyWlLk6GJQsqaUBKTNV-1" vertex="1">
          <mxGeometry x="50" y="937.5" width="70" height="35" as="geometry" />
        </mxCell>
        <mxCell id="8JjCBqSIyLLTaly739qu-21" value="内网后台管理" style="rounded=1;whiteSpace=wrap;html=1;" parent="WIyWlLk6GJQsqaUBKTNV-1" vertex="1">
          <mxGeometry x="130" y="925" width="120" height="60" as="geometry" />
        </mxCell>
        <mxCell id="8JjCBqSIyLLTaly739qu-22" value="内网报表分析系统" style="rounded=1;whiteSpace=wrap;html=1;" parent="WIyWlLk6GJQsqaUBKTNV-1" vertex="1">
          <mxGeometry x="285" y="925" width="120" height="60" as="geometry" />
        </mxCell>
        <mxCell id="8JjCBqSIyLLTaly739qu-23" value="外网门户(数据中心)" style="rounded=1;whiteSpace=wrap;html=1;" parent="WIyWlLk6GJQsqaUBKTNV-1" vertex="1">
          <mxGeometry x="500" y="925" width="120" height="60" as="geometry" />
        </mxCell>
        <mxCell id="8JjCBqSIyLLTaly739qu-24" value="" style="verticalLabelPosition=bottom;verticalAlign=top;html=1;shape=mxgraph.basic.rect;fillColor2=none;strokeWidth=1;size=20;indent=5;" parent="WIyWlLk6GJQsqaUBKTNV-1" vertex="1">
          <mxGeometry x="40" y="1110" width="480" height="90" as="geometry" />
        </mxCell>
        <mxCell id="8JjCBqSIyLLTaly739qu-25" value="cube 管理" style="rounded=1;whiteSpace=wrap;html=1;" parent="WIyWlLk6GJQsqaUBKTNV-1" vertex="1">
          <mxGeometry x="100" y="1125" width="120" height="60" as="geometry" />
        </mxCell>
        <mxCell id="8JjCBqSIyLLTaly739qu-26" value="" style="verticalLabelPosition=bottom;verticalAlign=top;html=1;shape=mxgraph.basic.rect;fillColor2=none;strokeWidth=1;size=20;indent=5;" parent="WIyWlLk6GJQsqaUBKTNV-1" vertex="1">
          <mxGeometry x="30" y="1290" width="490" height="90" as="geometry" />
        </mxCell>
        <mxCell id="8JjCBqSIyLLTaly739qu-27" value="网关层" style="text;html=1;strokeColor=none;fillColor=none;align=center;verticalAlign=middle;whiteSpace=wrap;rounded=0;" parent="WIyWlLk6GJQsqaUBKTNV-1" vertex="1">
          <mxGeometry x="65" y="1330" width="40" height="20" as="geometry" />
        </mxCell>
        <mxCell id="8JjCBqSIyLLTaly739qu-28" value="cube 同步分发" style="rounded=1;whiteSpace=wrap;html=1;" parent="WIyWlLk6GJQsqaUBKTNV-1" vertex="1">
          <mxGeometry x="130" y="1310" width="90" height="60" as="geometry" />
        </mxCell>
        <mxCell id="8JjCBqSIyLLTaly739qu-29" value="cube 同步分发" style="rounded=1;whiteSpace=wrap;html=1;" parent="WIyWlLk6GJQsqaUBKTNV-1" vertex="1">
          <mxGeometry x="285" y="1310" width="90" height="60" as="geometry" />
        </mxCell>
        <mxCell id="PL1iqZEJcantrANZ6YWa-1" value="" style="ellipse;whiteSpace=wrap;html=1;" parent="WIyWlLk6GJQsqaUBKTNV-1" vertex="1">
          <mxGeometry x="150" y="1440" width="495" height="390" as="geometry" />
        </mxCell>
        <mxCell id="PL1iqZEJcantrANZ6YWa-2" value="model、cube 创建，同步到各个省份" style="rounded=1;whiteSpace=wrap;html=1;" parent="WIyWlLk6GJQsqaUBKTNV-1" vertex="1">
          <mxGeometry x="190" y="1660" width="120" height="60" as="geometry" />
        </mxCell>
        <mxCell id="PL1iqZEJcantrANZ6YWa-3" value="管理后台" style="text;html=1;strokeColor=none;fillColor=none;align=center;verticalAlign=middle;whiteSpace=wrap;rounded=0;" parent="WIyWlLk6GJQsqaUBKTNV-1" vertex="1">
          <mxGeometry x="292.5" y="1590" width="105" height="20" as="geometry" />
        </mxCell>
        <mxCell id="PL1iqZEJcantrANZ6YWa-4" value="定时 hive 数据同步加工任务" style="rounded=1;whiteSpace=wrap;html=1;" parent="WIyWlLk6GJQsqaUBKTNV-1" vertex="1">
          <mxGeometry x="160" y="1740" width="120" height="60" as="geometry" />
        </mxCell>
        <mxCell id="PL1iqZEJcantrANZ6YWa-7" value="数据加工完定时触发cube 构建" style="rounded=1;whiteSpace=wrap;html=1;" parent="WIyWlLk6GJQsqaUBKTNV-1" vertex="1">
          <mxGeometry x="400" y="1740" width="120" height="60" as="geometry" />
        </mxCell>
        <mxCell id="-zu_K8lEj-sw5WWqLcm4-4" style="edgeStyle=orthogonalEdgeStyle;rounded=0;orthogonalLoop=1;jettySize=auto;html=1;entryX=0.881;entryY=0.225;entryDx=0;entryDy=0;entryPerimeter=0;" parent="WIyWlLk6GJQsqaUBKTNV-1" source="-zu_K8lEj-sw5WWqLcm4-0" target="-zu_K8lEj-sw5WWqLcm4-1" edge="1">
          <mxGeometry relative="1" as="geometry" />
        </mxCell>
        <mxCell id="-zu_K8lEj-sw5WWqLcm4-7" style="edgeStyle=orthogonalEdgeStyle;rounded=0;orthogonalLoop=1;jettySize=auto;html=1;" parent="WIyWlLk6GJQsqaUBKTNV-1" source="-zu_K8lEj-sw5WWqLcm4-0" edge="1">
          <mxGeometry relative="1" as="geometry">
            <mxPoint x="320" y="2100" as="targetPoint" />
            <Array as="points">
              <mxPoint x="330" y="2100" />
            </Array>
          </mxGeometry>
        </mxCell>
        <mxCell id="-zu_K8lEj-sw5WWqLcm4-22" value="Text" style="edgeLabel;html=1;align=center;verticalAlign=middle;resizable=0;points=[];" parent="-zu_K8lEj-sw5WWqLcm4-7" vertex="1" connectable="0">
          <mxGeometry x="-0.4" y="-1" relative="1" as="geometry">
            <mxPoint as="offset" />
          </mxGeometry>
        </mxCell>
        <mxCell id="-zu_K8lEj-sw5WWqLcm4-0" value="定时任务扫描" style="shape=process;whiteSpace=wrap;html=1;backgroundOutline=1;" parent="WIyWlLk6GJQsqaUBKTNV-1" vertex="1">
          <mxGeometry x="260" y="1970" width="120" height="60" as="geometry" />
        </mxCell>
        <mxCell id="-zu_K8lEj-sw5WWqLcm4-1" value="发奖记录" style="strokeWidth=2;html=1;shape=mxgraph.flowchart.database;whiteSpace=wrap;" parent="WIyWlLk6GJQsqaUBKTNV-1" vertex="1">
          <mxGeometry x="30" y="2050" width="135" height="80" as="geometry" />
        </mxCell>
        <mxCell id="-zu_K8lEj-sw5WWqLcm4-20" style="edgeStyle=orthogonalEdgeStyle;rounded=0;orthogonalLoop=1;jettySize=auto;html=1;" parent="WIyWlLk6GJQsqaUBKTNV-1" source="-zu_K8lEj-sw5WWqLcm4-8" target="-zu_K8lEj-sw5WWqLcm4-1" edge="1">
          <mxGeometry relative="1" as="geometry" />
        </mxCell>
        <mxCell id="-zu_K8lEj-sw5WWqLcm4-21" value="更新发送状态" style="edgeLabel;html=1;align=center;verticalAlign=middle;resizable=0;points=[];" parent="-zu_K8lEj-sw5WWqLcm4-20" vertex="1" connectable="0">
          <mxGeometry x="0.1929" y="-2" relative="1" as="geometry">
            <mxPoint x="1" y="1" as="offset" />
          </mxGeometry>
        </mxCell>
        <mxCell id="-zu_K8lEj-sw5WWqLcm4-8" value="奖励api" style="rounded=1;whiteSpace=wrap;html=1;" parent="WIyWlLk6GJQsqaUBKTNV-1" vertex="1">
          <mxGeometry x="270" y="2095" width="120" height="60" as="geometry" />
        </mxCell>
        <mxCell id="-zu_K8lEj-sw5WWqLcm4-10" value="云盘接口" style="rhombus;whiteSpace=wrap;html=1;" parent="WIyWlLk6GJQsqaUBKTNV-1" vertex="1">
          <mxGeometry x="105" y="2250" width="110" height="65" as="geometry" />
        </mxCell>
        <mxCell id="-zu_K8lEj-sw5WWqLcm4-11" value="福利商城优惠券" style="rhombus;whiteSpace=wrap;html=1;" parent="WIyWlLk6GJQsqaUBKTNV-1" vertex="1">
          <mxGeometry x="265" y="2235" width="130" height="70" as="geometry" />
        </mxCell>
        <mxCell id="-zu_K8lEj-sw5WWqLcm4-14" style="edgeStyle=orthogonalEdgeStyle;rounded=0;orthogonalLoop=1;jettySize=auto;html=1;" parent="WIyWlLk6GJQsqaUBKTNV-1" source="-zu_K8lEj-sw5WWqLcm4-12" target="-zu_K8lEj-sw5WWqLcm4-13" edge="1">
          <mxGeometry relative="1" as="geometry" />
        </mxCell>
        <mxCell id="-zu_K8lEj-sw5WWqLcm4-12" value="福利社购机券" style="rhombus;whiteSpace=wrap;html=1;" parent="WIyWlLk6GJQsqaUBKTNV-1" vertex="1">
          <mxGeometry x="440" y="2240" width="120" height="60" as="geometry" />
        </mxCell>
        <mxCell id="-zu_K8lEj-sw5WWqLcm4-13" value="需要在运营平台创建抽奖活动" style="shape=note;whiteSpace=wrap;html=1;backgroundOutline=1;darkOpacity=0.05;" parent="WIyWlLk6GJQsqaUBKTNV-1" vertex="1">
          <mxGeometry x="680" y="2060" width="150" height="130" as="geometry" />
        </mxCell>
        <mxCell id="-zu_K8lEj-sw5WWqLcm4-17" value="" style="endArrow=classic;startArrow=classic;html=1;" parent="WIyWlLk6GJQsqaUBKTNV-1" edge="1">
          <mxGeometry width="50" height="50" relative="1" as="geometry">
            <mxPoint x="160" y="2250" as="sourcePoint" />
            <mxPoint x="280" y="2160" as="targetPoint" />
          </mxGeometry>
        </mxCell>
        <mxCell id="-zu_K8lEj-sw5WWqLcm4-18" value="" style="endArrow=classic;startArrow=classic;html=1;entryX=1;entryY=1;entryDx=0;entryDy=0;" parent="WIyWlLk6GJQsqaUBKTNV-1" source="-zu_K8lEj-sw5WWqLcm4-12" target="-zu_K8lEj-sw5WWqLcm4-8" edge="1">
          <mxGeometry width="50" height="50" relative="1" as="geometry">
            <mxPoint x="397.5" y="2225" as="sourcePoint" />
            <mxPoint x="517.5" y="2135" as="targetPoint" />
          </mxGeometry>
        </mxCell>
        <mxCell id="-zu_K8lEj-sw5WWqLcm4-19" value="" style="endArrow=classic;startArrow=classic;html=1;entryX=1;entryY=1;entryDx=0;entryDy=0;exitX=0.446;exitY=-0.014;exitDx=0;exitDy=0;exitPerimeter=0;" parent="WIyWlLk6GJQsqaUBKTNV-1" source="-zu_K8lEj-sw5WWqLcm4-11" edge="1">
          <mxGeometry width="50" height="50" relative="1" as="geometry">
            <mxPoint x="413.58823529411757" y="2249.705882352941" as="sourcePoint" />
            <mxPoint x="323" y="2155" as="targetPoint" />
          </mxGeometry>
        </mxCell>
        <mxCell id="-zu_K8lEj-sw5WWqLcm4-27" style="edgeStyle=orthogonalEdgeStyle;rounded=0;orthogonalLoop=1;jettySize=auto;html=1;" parent="WIyWlLk6GJQsqaUBKTNV-1" source="-zu_K8lEj-sw5WWqLcm4-24" edge="1">
          <mxGeometry relative="1" as="geometry">
            <mxPoint x="570" y="1950" as="targetPoint" />
          </mxGeometry>
        </mxCell>
        <mxCell id="-zu_K8lEj-sw5WWqLcm4-24" value="话机小程序" style="ellipse;whiteSpace=wrap;html=1;" parent="WIyWlLk6GJQsqaUBKTNV-1" vertex="1">
          <mxGeometry x="620" y="1860" width="120" height="80" as="geometry" />
        </mxCell>
        <mxCell id="-zu_K8lEj-sw5WWqLcm4-29" style="edgeStyle=orthogonalEdgeStyle;rounded=0;orthogonalLoop=1;jettySize=auto;html=1;entryX=1;entryY=0.25;entryDx=0;entryDy=0;" parent="WIyWlLk6GJQsqaUBKTNV-1" source="-zu_K8lEj-sw5WWqLcm4-28" target="-zu_K8lEj-sw5WWqLcm4-8" edge="1">
          <mxGeometry relative="1" as="geometry" />
        </mxCell>
        <mxCell id="-zu_K8lEj-sw5WWqLcm4-30" value="调用api 更新福利券状态" style="edgeLabel;html=1;align=center;verticalAlign=middle;resizable=0;points=[];" parent="-zu_K8lEj-sw5WWqLcm4-29" vertex="1" connectable="0">
          <mxGeometry x="0.3111" y="-2" relative="1" as="geometry">
            <mxPoint as="offset" />
          </mxGeometry>
        </mxCell>
        <mxCell id="-zu_K8lEj-sw5WWqLcm4-28" value="对外API接口" style="rounded=1;whiteSpace=wrap;html=1;" parent="WIyWlLk6GJQsqaUBKTNV-1" vertex="1">
          <mxGeometry x="540" y="1950" width="70" height="80" as="geometry" />
        </mxCell>
        <mxCell id="chvPgAmQDW7gMliFu5OJ-13" style="edgeStyle=orthogonalEdgeStyle;rounded=0;orthogonalLoop=1;jettySize=auto;html=1;entryX=0.5;entryY=0;entryDx=0;entryDy=0;" parent="WIyWlLk6GJQsqaUBKTNV-1" source="chvPgAmQDW7gMliFu5OJ-1" target="chvPgAmQDW7gMliFu5OJ-12" edge="1">
          <mxGeometry relative="1" as="geometry" />
        </mxCell>
        <mxCell id="chvPgAmQDW7gMliFu5OJ-15" value="存储数据库" style="edgeLabel;html=1;align=center;verticalAlign=middle;resizable=0;points=[];" parent="chvPgAmQDW7gMliFu5OJ-13" vertex="1" connectable="0">
          <mxGeometry x="-0.3455" y="4" relative="1" as="geometry">
            <mxPoint as="offset" />
          </mxGeometry>
        </mxCell>
        <mxCell id="chvPgAmQDW7gMliFu5OJ-1" value="打点上报服务&lt;br&gt;(bi-dotlog)" style="rounded=1;whiteSpace=wrap;html=1;" parent="WIyWlLk6GJQsqaUBKTNV-1" vertex="1">
          <mxGeometry x="375" y="2510" width="120" height="60" as="geometry" />
        </mxCell>
        <mxCell id="chvPgAmQDW7gMliFu5OJ-3" value="客户端" style="ellipse;whiteSpace=wrap;html=1;aspect=fixed;" parent="WIyWlLk6GJQsqaUBKTNV-1" vertex="1">
          <mxGeometry x="285" y="2338" width="92" height="92" as="geometry" />
        </mxCell>
        <mxCell id="chvPgAmQDW7gMliFu5OJ-4" value="web/h5" style="ellipse;whiteSpace=wrap;html=1;aspect=fixed;" parent="WIyWlLk6GJQsqaUBKTNV-1" vertex="1">
          <mxGeometry x="525" y="2340" width="90" height="90" as="geometry" />
        </mxCell>
        <mxCell id="chvPgAmQDW7gMliFu5OJ-6" value="" style="endArrow=classic;startArrow=classic;html=1;entryX=0.5;entryY=1;entryDx=0;entryDy=0;" parent="WIyWlLk6GJQsqaUBKTNV-1" target="chvPgAmQDW7gMliFu5OJ-3" edge="1">
          <mxGeometry width="50" height="50" relative="1" as="geometry">
            <mxPoint x="390" y="2510" as="sourcePoint" />
            <mxPoint x="390" y="2440" as="targetPoint" />
          </mxGeometry>
        </mxCell>
        <mxCell id="chvPgAmQDW7gMliFu5OJ-10" value="aace" style="edgeLabel;html=1;align=center;verticalAlign=middle;resizable=0;points=[];" parent="chvPgAmQDW7gMliFu5OJ-6" vertex="1" connectable="0">
          <mxGeometry x="0.2796" relative="1" as="geometry">
            <mxPoint y="1" as="offset" />
          </mxGeometry>
        </mxCell>
        <mxCell id="chvPgAmQDW7gMliFu5OJ-8" value="" style="endArrow=classic;startArrow=classic;html=1;" parent="WIyWlLk6GJQsqaUBKTNV-1" target="chvPgAmQDW7gMliFu5OJ-4" edge="1">
          <mxGeometry width="50" height="50" relative="1" as="geometry">
            <mxPoint x="480" y="2510" as="sourcePoint" />
            <mxPoint x="570" y="2440" as="targetPoint" />
            <Array as="points" />
          </mxGeometry>
        </mxCell>
        <mxCell id="chvPgAmQDW7gMliFu5OJ-11" value="HTTTP/HTTPS" style="edgeLabel;html=1;align=center;verticalAlign=middle;resizable=0;points=[];" parent="chvPgAmQDW7gMliFu5OJ-8" vertex="1" connectable="0">
          <mxGeometry x="0.2517" y="1" relative="1" as="geometry">
            <mxPoint as="offset" />
          </mxGeometry>
        </mxCell>
        <mxCell id="chvPgAmQDW7gMliFu5OJ-16" style="edgeStyle=orthogonalEdgeStyle;rounded=0;orthogonalLoop=1;jettySize=auto;html=1;entryX=0;entryY=0.5;entryDx=0;entryDy=0;" parent="WIyWlLk6GJQsqaUBKTNV-1" source="chvPgAmQDW7gMliFu5OJ-12" target="chvPgAmQDW7gMliFu5OJ-14" edge="1">
          <mxGeometry relative="1" as="geometry">
            <mxPoint x="690" y="2665" as="targetPoint" />
          </mxGeometry>
        </mxCell>
        <mxCell id="chvPgAmQDW7gMliFu5OJ-17" value="定时任务触发扫描记录" style="edgeLabel;html=1;align=center;verticalAlign=middle;resizable=0;points=[];" parent="chvPgAmQDW7gMliFu5OJ-16" vertex="1" connectable="0">
          <mxGeometry x="-0.3412" y="-2" relative="1" as="geometry">
            <mxPoint x="34" y="-2" as="offset" />
          </mxGeometry>
        </mxCell>
        <mxCell id="chvPgAmQDW7gMliFu5OJ-12" value="mysql(smt_dot_record)" style="rounded=1;whiteSpace=wrap;html=1;" parent="WIyWlLk6GJQsqaUBKTNV-1" vertex="1">
          <mxGeometry x="375" y="2640" width="145" height="50" as="geometry" />
        </mxCell>
        <mxCell id="chvPgAmQDW7gMliFu5OJ-20" style="edgeStyle=orthogonalEdgeStyle;rounded=0;orthogonalLoop=1;jettySize=auto;html=1;" parent="WIyWlLk6GJQsqaUBKTNV-1" source="chvPgAmQDW7gMliFu5OJ-14" edge="1">
          <mxGeometry relative="1" as="geometry">
            <mxPoint x="540" y="2968" as="targetPoint" />
            <Array as="points">
              <mxPoint x="880" y="2665" />
              <mxPoint x="880" y="2953" />
              <mxPoint x="600" y="2953" />
              <mxPoint x="600" y="2968" />
            </Array>
          </mxGeometry>
        </mxCell>
        <mxCell id="chvPgAmQDW7gMliFu5OJ-21" value="完成统计" style="edgeLabel;html=1;align=center;verticalAlign=middle;resizable=0;points=[];" parent="chvPgAmQDW7gMliFu5OJ-20" vertex="1" connectable="0">
          <mxGeometry x="-0.4615" y="1" relative="1" as="geometry">
            <mxPoint as="offset" />
          </mxGeometry>
        </mxCell>
        <mxCell id="chvPgAmQDW7gMliFu5OJ-14" value="定时统计服务(dot-analysis)" style="rounded=1;whiteSpace=wrap;html=1;" parent="WIyWlLk6GJQsqaUBKTNV-1" vertex="1">
          <mxGeometry x="720" y="2635" width="120" height="60" as="geometry" />
        </mxCell>
        <mxCell id="chvPgAmQDW7gMliFu5OJ-18" value="mysql(结果表)" style="rounded=1;whiteSpace=wrap;html=1;" parent="WIyWlLk6GJQsqaUBKTNV-1" vertex="1">
          <mxGeometry x="370" y="2923" width="152" height="57" as="geometry" />
        </mxCell>
        <mxCell id="chvPgAmQDW7gMliFu5OJ-19" value="mysql(临时去重表)" style="rounded=1;whiteSpace=wrap;html=1;" parent="WIyWlLk6GJQsqaUBKTNV-1" vertex="1">
          <mxGeometry x="375" y="2790" width="145" height="60" as="geometry" />
        </mxCell>
        <mxCell id="chvPgAmQDW7gMliFu5OJ-23" value="" style="endArrow=classic;startArrow=classic;html=1;" parent="WIyWlLk6GJQsqaUBKTNV-1" edge="1">
          <mxGeometry width="50" height="50" relative="1" as="geometry">
            <mxPoint x="530" y="2820" as="sourcePoint" />
            <mxPoint x="750" y="2700" as="targetPoint" />
          </mxGeometry>
        </mxCell>
        <mxCell id="chvPgAmQDW7gMliFu5OJ-24" value="根据配置判断是否要存储临时表" style="edgeLabel;html=1;align=center;verticalAlign=middle;resizable=0;points=[];" parent="chvPgAmQDW7gMliFu5OJ-23" vertex="1" connectable="0">
          <mxGeometry x="-0.1318" y="1" relative="1" as="geometry">
            <mxPoint as="offset" />
          </mxGeometry>
        </mxCell>
        <mxCell id="p-RLsPjVevs1HbreNlb5-0" value="历史指标统计表" style="rounded=1;whiteSpace=wrap;html=1;" parent="WIyWlLk6GJQsqaUBKTNV-1" vertex="1">
          <mxGeometry x="387.5" y="3260" width="145" height="60" as="geometry" />
        </mxCell>
        <mxCell id="p-RLsPjVevs1HbreNlb5-7" style="edgeStyle=orthogonalEdgeStyle;rounded=0;orthogonalLoop=1;jettySize=auto;html=1;" parent="WIyWlLk6GJQsqaUBKTNV-1" source="p-RLsPjVevs1HbreNlb5-1" edge="1">
          <mxGeometry relative="1" as="geometry">
            <mxPoint x="452.5" y="3260" as="targetPoint" />
          </mxGeometry>
        </mxCell>
        <mxCell id="p-RLsPjVevs1HbreNlb5-1" value="baas-stat&lt;br&gt;定时任务统计二次加工" style="rounded=1;whiteSpace=wrap;html=1;" parent="WIyWlLk6GJQsqaUBKTNV-1" vertex="1">
          <mxGeometry x="380" y="3090" width="145" height="50" as="geometry" />
        </mxCell>
        <mxCell id="p-RLsPjVevs1HbreNlb5-3" value="" style="shape=flexArrow;endArrow=classic;html=1;" parent="WIyWlLk6GJQsqaUBKTNV-1" source="chvPgAmQDW7gMliFu5OJ-18" edge="1">
          <mxGeometry width="50" height="50" relative="1" as="geometry">
            <mxPoint x="455" y="2990" as="sourcePoint" />
            <mxPoint x="446" y="3080" as="targetPoint" />
            <Array as="points">
              <mxPoint x="446" y="3040" />
            </Array>
          </mxGeometry>
        </mxCell>
        <mxCell id="p-RLsPjVevs1HbreNlb5-4" value="业务数据表" style="rounded=1;whiteSpace=wrap;html=1;" parent="WIyWlLk6GJQsqaUBKTNV-1" vertex="1">
          <mxGeometry x="45" y="3100" width="145" height="60" as="geometry" />
        </mxCell>
        <mxCell id="p-RLsPjVevs1HbreNlb5-6" value="" style="shape=flexArrow;endArrow=classic;html=1;" parent="WIyWlLk6GJQsqaUBKTNV-1" edge="1">
          <mxGeometry width="50" height="50" relative="1" as="geometry">
            <mxPoint x="210" y="3129.5" as="sourcePoint" />
            <mxPoint x="360" y="3129.5" as="targetPoint" />
          </mxGeometry>
        </mxCell>
        <mxCell id="T7Q-4LyaR41bASMH3_Tc-0" value="baas-ops-gateway" style="rounded=1;whiteSpace=wrap;html=1;" parent="WIyWlLk6GJQsqaUBKTNV-1" vertex="1">
          <mxGeometry x="460" y="3400" width="145" height="60" as="geometry" />
        </mxCell>
        <mxCell id="T7Q-4LyaR41bASMH3_Tc-1" value="baas-ops-mgr&lt;br&gt;管理后台" style="rounded=1;whiteSpace=wrap;html=1;" parent="WIyWlLk6GJQsqaUBKTNV-1" vertex="1">
          <mxGeometry x="620" y="3480" width="145" height="60" as="geometry" />
        </mxCell>
        <mxCell id="T7Q-4LyaR41bASMH3_Tc-2" value="baas-stat&lt;br&gt;数据统计服务" style="rounded=1;whiteSpace=wrap;html=1;" parent="WIyWlLk6GJQsqaUBKTNV-1" vertex="1">
          <mxGeometry x="740" y="3390" width="145" height="60" as="geometry" />
        </mxCell>
        <mxCell id="T7Q-4LyaR41bASMH3_Tc-3" value="baas-advert&lt;br&gt;广告服务" style="rounded=1;whiteSpace=wrap;html=1;" parent="WIyWlLk6GJQsqaUBKTNV-1" vertex="1">
          <mxGeometry x="180" y="3400" width="145" height="60" as="geometry" />
        </mxCell>
        <mxCell id="3uMi3oDGjcPtFHxSLLiU-0" value="彩云数据平台&lt;br&gt;异常维护" style="rounded=1;whiteSpace=wrap;html=1;" parent="WIyWlLk6GJQsqaUBKTNV-1" vertex="1">
          <mxGeometry x="356" y="3660" width="115" height="60" as="geometry" />
        </mxCell>
        <mxCell id="3uMi3oDGjcPtFHxSLLiU-1" value="云商城数据中心" style="rounded=1;whiteSpace=wrap;html=1;" parent="WIyWlLk6GJQsqaUBKTNV-1" vertex="1">
          <mxGeometry x="180" y="4020" width="120" height="60" as="geometry" />
        </mxCell>
        <mxCell id="3uMi3oDGjcPtFHxSLLiU-2" value="baas 运营支撑平台" style="rounded=1;whiteSpace=wrap;html=1;dashed=1;" parent="WIyWlLk6GJQsqaUBKTNV-1" vertex="1">
          <mxGeometry x="356" y="4340" width="120" height="60" as="geometry" />
        </mxCell>
        <mxCell id="3uMi3oDGjcPtFHxSLLiU-4" value="彩云运营平台" style="rounded=1;whiteSpace=wrap;html=1;" parent="WIyWlLk6GJQsqaUBKTNV-1" vertex="1">
          <mxGeometry x="172.5" y="3940" width="120" height="60" as="geometry" />
        </mxCell>
        <mxCell id="3uMi3oDGjcPtFHxSLLiU-5" value="苏研运营平台" style="rounded=1;whiteSpace=wrap;html=1;dashed=1;" parent="WIyWlLk6GJQsqaUBKTNV-1" vertex="1">
          <mxGeometry x="356" y="4250" width="120" height="60" as="geometry" />
        </mxCell>
        <mxCell id="3uMi3oDGjcPtFHxSLLiU-6" value="各种接口对接" style="rounded=1;whiteSpace=wrap;html=1;" parent="WIyWlLk6GJQsqaUBKTNV-1" vertex="1">
          <mxGeometry x="455" y="3910" width="120" height="60" as="geometry" />
        </mxCell>
        <mxCell id="3uMi3oDGjcPtFHxSLLiU-7" value="苏研数据看版" style="rounded=1;whiteSpace=wrap;html=1;" parent="WIyWlLk6GJQsqaUBKTNV-1" vertex="1">
          <mxGeometry x="495" y="4250" width="120" height="60" as="geometry" />
        </mxCell>
        <mxCell id="3uMi3oDGjcPtFHxSLLiU-8" value="baas 数据应用" style="rounded=1;whiteSpace=wrap;html=1;dashed=1;" parent="WIyWlLk6GJQsqaUBKTNV-1" vertex="1">
          <mxGeometry x="500" y="4340" width="120" height="60" as="geometry" />
        </mxCell>
        <mxCell id="3uMi3oDGjcPtFHxSLLiU-9" value="政企通讯录搜索" style="rounded=1;whiteSpace=wrap;html=1;" parent="WIyWlLk6GJQsqaUBKTNV-1" vertex="1">
          <mxGeometry x="800" y="3930" width="120" height="60" as="geometry" />
        </mxCell>
        <mxCell id="3uMi3oDGjcPtFHxSLLiU-10" value="彩云相关活动" style="rounded=1;whiteSpace=wrap;html=1;" parent="WIyWlLk6GJQsqaUBKTNV-1" vertex="1">
          <mxGeometry x="455" y="3985" width="120" height="60" as="geometry" />
        </mxCell>
        <mxCell id="3uMi3oDGjcPtFHxSLLiU-13" value="平台数据迁移" style="rounded=1;whiteSpace=wrap;html=1;" parent="WIyWlLk6GJQsqaUBKTNV-1" vertex="1">
          <mxGeometry x="480" y="3730" width="115" height="60" as="geometry" />
        </mxCell>
        <mxCell id="3uMi3oDGjcPtFHxSLLiU-14" value="彩云埋点统计" style="rounded=1;whiteSpace=wrap;html=1;dashed=1;" parent="WIyWlLk6GJQsqaUBKTNV-1" vertex="1">
          <mxGeometry x="40" y="3940" width="120" height="60" as="geometry" />
        </mxCell>
        <mxCell id="3uMi3oDGjcPtFHxSLLiU-15" value="baas + mdos&amp;nbsp; 埋点统计" style="rounded=1;whiteSpace=wrap;html=1;dashed=1;" parent="WIyWlLk6GJQsqaUBKTNV-1" vertex="1">
          <mxGeometry x="40" y="4020" width="120" height="60" as="geometry" />
        </mxCell>
        <mxCell id="3uMi3oDGjcPtFHxSLLiU-16" value="日常报表取数/邮件" style="rounded=1;whiteSpace=wrap;html=1;" parent="WIyWlLk6GJQsqaUBKTNV-1" vertex="1">
          <mxGeometry x="356" y="3730" width="115" height="60" as="geometry" />
        </mxCell>
        <mxCell id="3uMi3oDGjcPtFHxSLLiU-18" value="仪表盘主开发" style="rounded=1;whiteSpace=wrap;html=1;" parent="WIyWlLk6GJQsqaUBKTNV-1" vertex="1">
          <mxGeometry x="480" y="3660" width="115" height="60" as="geometry" />
        </mxCell>
        <mxCell id="3uMi3oDGjcPtFHxSLLiU-20" value="短信对接" style="rounded=1;whiteSpace=wrap;html=1;" parent="WIyWlLk6GJQsqaUBKTNV-1" vertex="1">
          <mxGeometry x="800" y="4010" width="120" height="60" as="geometry" />
        </mxCell>
        <mxCell id="3uMi3oDGjcPtFHxSLLiU-21" value="其他需求" style="rounded=1;whiteSpace=wrap;html=1;" parent="WIyWlLk6GJQsqaUBKTNV-1" vertex="1">
          <mxGeometry x="460" y="4070" width="120" height="60" as="geometry" />
        </mxCell>
        <mxCell id="3uMi3oDGjcPtFHxSLLiU-25" value="苏城峰" style="text;html=1;align=center;verticalAlign=middle;whiteSpace=wrap;rounded=0;dashed=1;fillColor=#e1d5e7;strokeColor=#9673a6;" parent="WIyWlLk6GJQsqaUBKTNV-1" vertex="1">
          <mxGeometry x="670" y="3700" width="100" height="50" as="geometry" />
        </mxCell>
        <mxCell id="3uMi3oDGjcPtFHxSLLiU-34" value="都涉及" style="text;html=1;strokeColor=none;fillColor=none;align=center;verticalAlign=middle;whiteSpace=wrap;rounded=0;dashed=1;" parent="WIyWlLk6GJQsqaUBKTNV-1" vertex="1">
          <mxGeometry x="395" y="3985" width="40" height="20" as="geometry" />
        </mxCell>
        <mxCell id="3uMi3oDGjcPtFHxSLLiU-45" value="吴振宏" style="text;html=1;align=center;verticalAlign=middle;whiteSpace=wrap;rounded=0;dashed=1;fillColor=#d5e8d4;strokeColor=#82b366;" parent="WIyWlLk6GJQsqaUBKTNV-1" vertex="1">
          <mxGeometry x="120" y="4180" width="100" height="50" as="geometry" />
        </mxCell>
        <mxCell id="3uMi3oDGjcPtFHxSLLiU-46" value="李强" style="text;html=1;align=center;verticalAlign=middle;whiteSpace=wrap;rounded=0;dashed=1;fillColor=#f5f5f5;strokeColor=#666666;fontColor=#333333;" parent="WIyWlLk6GJQsqaUBKTNV-1" vertex="1">
          <mxGeometry x="820" y="4190" width="100" height="50" as="geometry" />
        </mxCell>
        <mxCell id="3uMi3oDGjcPtFHxSLLiU-47" value="彭鑫" style="text;html=1;align=center;verticalAlign=middle;whiteSpace=wrap;rounded=0;dashed=1;fillColor=#f8cecc;strokeColor=#b85450;" parent="WIyWlLk6GJQsqaUBKTNV-1" vertex="1">
          <mxGeometry x="440" y="4470" width="100" height="50" as="geometry" />
        </mxCell>
        <mxCell id="3uMi3oDGjcPtFHxSLLiU-48" value="" style="endArrow=classic;html=1;fontSize=13;" parent="WIyWlLk6GJQsqaUBKTNV-1" target="3uMi3oDGjcPtFHxSLLiU-31" edge="1">
          <mxGeometry width="50" height="50" relative="1" as="geometry">
            <mxPoint x="250" y="4150" as="sourcePoint" />
            <mxPoint x="310" y="4150" as="targetPoint" />
          </mxGeometry>
        </mxCell>
        <mxCell id="3uMi3oDGjcPtFHxSLLiU-49" value="逐步拆分" style="edgeLabel;html=1;align=center;verticalAlign=middle;resizable=0;points=[];fontSize=13;" parent="3uMi3oDGjcPtFHxSLLiU-48" vertex="1" connectable="0">
          <mxGeometry x="-0.4558" y="5" relative="1" as="geometry">
            <mxPoint x="36" y="11" as="offset" />
          </mxGeometry>
        </mxCell>
        <mxCell id="WbTHGDdrdQ71EQfE0Vz5-0" value="表单导入" style="rounded=1;whiteSpace=wrap;html=1;" vertex="1" parent="WIyWlLk6GJQsqaUBKTNV-1">
          <mxGeometry x="317.5" y="5060" width="120" height="60" as="geometry" />
        </mxCell>
        <mxCell id="WbTHGDdrdQ71EQfE0Vz5-1" value="excel" style="rounded=1;whiteSpace=wrap;html=1;" vertex="1" parent="WIyWlLk6GJQsqaUBKTNV-1">
          <mxGeometry x="1010" y="5580" width="120" height="60" as="geometry" />
        </mxCell>
        <mxCell id="WbTHGDdrdQ71EQfE0Vz5-2" value="" style="rounded=1;whiteSpace=wrap;html=1;" vertex="1" parent="WIyWlLk6GJQsqaUBKTNV-1">
          <mxGeometry x="325" y="5201" width="195" height="69" as="geometry" />
        </mxCell>
        <mxCell id="WbTHGDdrdQ71EQfE0Vz5-3" value="适配" style="rounded=1;whiteSpace=wrap;html=1;" vertex="1" parent="WIyWlLk6GJQsqaUBKTNV-1">
          <mxGeometry x="507.5" y="5595" width="322.5" height="30" as="geometry" />
        </mxCell>
        <mxCell id="WbTHGDdrdQ71EQfE0Vz5-5" value="ods 数据源" style="rounded=0;whiteSpace=wrap;html=1;" vertex="1" parent="WIyWlLk6GJQsqaUBKTNV-1">
          <mxGeometry x="192.5" y="5595" width="195" height="50" as="geometry" />
        </mxCell>
        <mxCell id="WbTHGDdrdQ71EQfE0Vz5-17" value="&lt;span&gt;csv/excel上传文件 预览&lt;/span&gt;" style="rounded=1;whiteSpace=wrap;html=1;" vertex="1" parent="WIyWlLk6GJQsqaUBKTNV-1">
          <mxGeometry x="285" y="4840" width="145" height="50" as="geometry" />
        </mxCell>
        <mxCell id="WbTHGDdrdQ71EQfE0Vz5-22" value="&lt;span&gt;csv/excel上传文件 预览&lt;/span&gt;" style="rounded=1;whiteSpace=wrap;html=1;" vertex="1" parent="WIyWlLk6GJQsqaUBKTNV-1">
          <mxGeometry x="505" y="4840" width="145" height="50" as="geometry" />
        </mxCell>
        <mxCell id="WbTHGDdrdQ71EQfE0Vz5-24" value="&lt;span&gt;csv 上传预览&lt;/span&gt;" style="rounded=1;whiteSpace=wrap;html=1;" vertex="1" parent="WIyWlLk6GJQsqaUBKTNV-1">
          <mxGeometry x="332.5" y="5215" width="79" height="20" as="geometry" />
        </mxCell>
        <mxCell id="WbTHGDdrdQ71EQfE0Vz5-25" value="csv&amp;nbsp; 导入" style="whiteSpace=wrap;html=1;rounded=1;" vertex="1" parent="WIyWlLk6GJQsqaUBKTNV-1">
          <mxGeometry x="442.5" y="5215" width="59" height="20" as="geometry" />
        </mxCell>
        <mxCell id="WbTHGDdrdQ71EQfE0Vz5-35" value="" style="rounded=1;whiteSpace=wrap;html=1;" vertex="1" parent="WIyWlLk6GJQsqaUBKTNV-1">
          <mxGeometry x="557.5" y="5201" width="212.5" height="69" as="geometry" />
        </mxCell>
        <mxCell id="WbTHGDdrdQ71EQfE0Vz5-37" value="&lt;span&gt;excel 上传预览&lt;/span&gt;" style="rounded=1;whiteSpace=wrap;html=1;" vertex="1" parent="WIyWlLk6GJQsqaUBKTNV-1">
          <mxGeometry x="566" y="5214" width="89" height="17" as="geometry" />
        </mxCell>
        <mxCell id="WbTHGDdrdQ71EQfE0Vz5-38" value="excel 导入" style="whiteSpace=wrap;html=1;rounded=1;" vertex="1" parent="WIyWlLk6GJQsqaUBKTNV-1">
          <mxGeometry x="695" y="5209" width="60" height="27" as="geometry" />
        </mxCell>
        <mxCell id="WbTHGDdrdQ71EQfE0Vz5-39" value="" style="rounded=1;whiteSpace=wrap;html=1;" vertex="1" parent="WIyWlLk6GJQsqaUBKTNV-1">
          <mxGeometry x="325" y="5278.44" width="195" height="81.56" as="geometry" />
        </mxCell>
        <mxCell id="WbTHGDdrdQ71EQfE0Vz5-41" value="表单选择" style="rounded=1;whiteSpace=wrap;html=1;" vertex="1" parent="WIyWlLk6GJQsqaUBKTNV-1">
          <mxGeometry x="343.5" y="5295.94" width="59" height="20" as="geometry" />
        </mxCell>
        <mxCell id="WbTHGDdrdQ71EQfE0Vz5-42" value="表单 导入" style="whiteSpace=wrap;html=1;rounded=1;" vertex="1" parent="WIyWlLk6GJQsqaUBKTNV-1">
          <mxGeometry x="439" y="5294.69" width="55" height="22.5" as="geometry" />
        </mxCell>
        <mxCell id="WbTHGDdrdQ71EQfE0Vz5-44" value="" style="rounded=1;whiteSpace=wrap;html=1;" vertex="1" parent="WIyWlLk6GJQsqaUBKTNV-1">
          <mxGeometry x="557.5" y="5278.44" width="212.5" height="81.56" as="geometry" />
        </mxCell>
        <mxCell id="WbTHGDdrdQ71EQfE0Vz5-46" value="api导入配置" style="rounded=1;whiteSpace=wrap;html=1;" vertex="1" parent="WIyWlLk6GJQsqaUBKTNV-1">
          <mxGeometry x="575" y="5295.63" width="85" height="24.37" as="geometry" />
        </mxCell>
        <mxCell id="WbTHGDdrdQ71EQfE0Vz5-48" value="api 抽取配置" style="rounded=1;whiteSpace=wrap;html=1;" vertex="1" parent="WIyWlLk6GJQsqaUBKTNV-1">
          <mxGeometry x="677.5" y="5295.63" width="85" height="24.37" as="geometry" />
        </mxCell>
      </root>
    </mxGraphModel>
  </diagram>
</mxfile>
